# File exported by Houdini 17.5.360 (www.sidefx.com)
# 46 points
# 138 vertices
# 33 primitives
# Bounds: [-2.5, -0.5, -2.5] to [2.5, 0.5, 2.5]
g 
v 2.5 -0.5 -0.876960754
v 2.5 0.5 -1.01385212
v 2.5 -0.5 2.17127728
v 2.5 0.5 2.42493558
v -0.0845836923 -0.5 -0.127991721
v 0.0297335684 0.5 0.227364078
v 0.62682122 0.5 -1.01385212
v 0.0275922343 0.5 -0.262255996
v -0.0853253528 -0.5 -0.297572583
v 0.376606494 -0.5 -0.876960754
v 2.5 -0.5 -2.5
v 2.5 0.5 -2.5
v 2.5 -0.5 -0.876960754
v 2.5 0.5 -1.01385212
v 0.376606584 -0.5 -2.5
v 0.626821041 0.5 -2.5
v 0.626821041 0.5 -1.01385212
v 0.376606584 -0.5 -0.876960874
v 2.5 -0.5 2.5
v 2.5 0.5 2.5
v 2.5 -0.5 2.17127776
v 2.5 0.5 2.42493558
v -1.37024701 -0.5 2.5
v -1.08208287 0.5 2.5
v -0.0845837593 -0.5 -0.127991706
v 0.029733479 0.5 0.227364004
v -2.5 -0.5 2.5
v -2.5 0.5 2.5
v -1.37024701 -0.5 2.5
v -1.08208287 0.5 2.5
v -2.5 -0.5 -1.05280137
v -2.5 0.5 -1.05280137
v -0.084583655 -0.5 -0.127992362
v -0.0853253528 -0.5 -0.297572911
v 0.029733384 0.5 0.227364376
v 0.0275919903 0.5 -0.262255937
v -2.5 -0.5 -2.5
v -2.5 0.5 -2.5
v -2.5 -0.5 -1.05280137
v -2.5 0.5 -1.05280137
v 0.376606584 -0.5 -2.5
v 0.626821041 0.5 -2.5
v 0.626821041 0.5 -1.01385188
v 0.0275920946 0.5 -0.262255877
v -0.085325323 -0.5 -0.297572583
v 0.376606584 -0.5 -0.876960814
vn 0 1 0
vn 0 1 0
vn 0 1 0
vn 0 1 0
vn 0 1 0
vn -0 -0.13562648 -0.990760028
vn 0 -0.135626495 -0.990760028
vn 0 -0.135626495 -0.990760028
vn -0 -0.135626495 -0.990760088
vn 1 0 0
vn 1 0 0
vn 1 0 0
vn 1 0 0
vn 0 -1 0
vn 0 -1 0
vn 0 -1 0
vn 0 -1 0
vn 0 -1 0
vn -0.653040111 -0.186204284 0.734075308
vn -0.653040111 -0.186204165 0.734075308
vn -0.653040051 -0.18620418 0.734075367
vn -0.653040051 -0.186204299 0.734075367
vn -0.993692815 0.112051912 0.00434587616
vn -0.993692815 0.112051927 0.00434590783
vn -0.993692875 0.112051904 0.00434590783
vn -0.993692875 0.112051904 0.00434587663
vn -0.77719301 0.109642215 -0.619636774
vn -0.77719295 0.109642193 -0.619636714
vn -0.77719295 0.109642185 -0.619636655
vn -0.77719301 0.109642208 -0.619636774
vn -0 -0 -1
vn 0 0 -1
vn 0 0 -1
vn -0 0 -1
vn 1 0 0
vn 1 -0 -0
vn 1 0 0
vn 1 0 0
vn 0 -1 0
vn 0 -1 0
vn 0 -1 0
vn -0 -1 -0
vn -0 1 -0
vn 0 1 0
vn 0 1 0
vn 0 1 0
vn -0 0.135626391 0.990760088
vn -5.56221913e-08 0.135626391 0.990760028
vn -5.56221913e-08 0.135626495 0.990760028
vn -0 0.13562648 0.990760028
vn -0.970093489 0.242731407 -0
vn -0.970093489 0.242731407 -0
vn -0.970093548 0.242731407 -0
vn -0.970093548 0.242731437 -0
vn 1 -0 -0
vn 1 0 0
vn 1 0 0
vn 1 -0 -0
vn 0 1 0
vn 0 1 0
vn 0 1 0
vn -0 1 -0
vn 0.653040111 0.186203957 -0.734075427
vn 0.65304023 0.186203957 -0.734075367
vn 0.653040171 0.186204106 -0.734075367
vn 0.653040171 0.186204135 -0.734075427
vn 0 0 1
vn 0 0 1
vn -0 -0 1
vn 0 0 1
vn 0 -1 -0
vn 0 -1 0
vn 0 -1 0
vn 0 -1 0
vn -0.869606733 0.25058946 -0.425428033
vn -0.869606793 0.250589341 -0.425428063
vn -0.869606793 0.250589311 -0.425428063
vn -0.869606674 0.25058946 -0.425428063
vn -0 -0 1
vn 0 0 1
vn 0 0 1
vn -0 -0 1
vn 0 -1 0
vn -0 -1 -0
vn 0 -1 0
vn 0 -1 0
vn 0 -1 0
vn 0.869606733 -0.25058946 0.425428033
vn 0.869606733 -0.25058946 0.425427973
vn 0.869606793 -0.250589579 0.425427973
vn 0.869606674 -0.250589579 0.425428003
vn -1 0 0
vn -1 -0 -0
vn -1 -0 0
vn -1 0 0
vn 0.298506349 2.41478915e-07 -0.954407632
vn 0.298506349 -0 -0.954407632
vn 0.298506498 -0 -0.954407632
vn 0.298506498 2.2787782e-07 -0.954407632
vn 0 1 0
vn 0 1 0
vn 0 1 0
vn 0 1 0
vn 0 1 0
vn 0.993692935 -0.112051599 -0.00434613507
vn 0.993692875 -0.112051666 -0.00434613461
vn 0.993692935 -0.112051681 -0.00434599584
vn 0.993692994 -0.112051673 -0.00434599584
vn -1 0 -0
vn -1 0 0
vn -1 0 0
vn -1 -0 -0
vn 0 1 0
vn -0 1 -0
vn 0 1 0
vn 0 1 0
vn 0 1 0
vn -0.298506469 -0 0.954407632
vn -0.298506469 -0 0.954407573
vn -0.298506498 5.00627024e-08 0.954407573
vn -0.298506469 4.78262052e-08 0.954407632
vn 0 0 -1
vn 0 -0 -1
vn -0 -0 -1
vn 0 0 -1
vn 0 -1 0
vn 0 -1 0
vn 0 -1 0
vn -0 -1 0
vn 0 -1 0
vn 0.970093548 -0.242731452 -0
vn 0.970093548 -0.242731437 -0
vn 0.970093548 -0.242731407 -0
vn 0.970093489 -0.242731407 -0
vn 0.77719301 -0.109642185 0.619636774
vn 0.777192891 -0.109642148 0.619636714
vn 0.77719295 -0.109642141 0.619636714
vn 0.77719301 -0.109642208 0.619636714
g 
f 2//1 7//2 8//3 6//4 4//5
f 2//6 1//7 10//8 7//9
f 3//10 1//11 2//12 4//13
f 3//14 5//15 9//16 10//17 1//18
f 4//19 6//20 5//21 3//22
f 8//23 9//24 5//25 6//26
f 8//27 7//28 10//29 9//30
f 11//31 15//32 16//33 12//34
f 13//35 11//36 12//37 14//38
f 13//39 18//40 15//41 11//42
f 12//43 16//44 17//45 14//46
f 17//47 18//48 13//49 14//50
f 16//51 15//52 18//53 17//54
f 19//55 21//56 22//57 20//58
f 22//59 26//60 24//61 20//62
f 22//63 21//64 25//65 26//66
f 23//67 19//68 20//69 24//70
f 19//71 23//72 25//73 21//74
f 24//75 26//76 25//77 23//78
f 27//79 29//80 30//81 28//82
f 29//83 27//84 31//85 34//86 33//87
f 30//88 29//89 33//90 35//91
f 31//92 27//93 28//94 32//95
f 34//96 31//97 32//98 36//99
f 35//100 36//101 32//102 28//103 30//104
f 33//105 34//106 36//107 35//108
f 37//109 39//110 40//111 38//112
f 42//113 38//114 40//115 44//116 43//117
f 40//118 39//119 45//120 44//121
f 41//122 37//123 38//124 42//125
f 46//126 45//127 39//128 37//129 41//130
f 42//131 43//132 46//133 41//134
f 43//135 44//136 45//137 46//138
