# File exported by Houdini 17.5.360 (www.sidefx.com)
# 28 points
# 84 vertices
# 20 primitives
# Bounds: [-22.3316002, 0, -18.3591003] to [14.1433001, 36.4749985, 18.1159]
g 
v -22.3316002 0 18.1159
v -22.3316002 0 -18.3591003
v 14.1433001 0 18.1159
v -22.3316002 20.854847 18.1159
v 14.1433001 20.854847 18.1159
v 14.1433001 0 -8.97044086
v -5.98724413 0 -18.3591003
v 14.1433001 19.4396687 12.8668938
v -22.3316002 6.78586388 -18.3591003
v -22.3316002 12.8607101 -11.5349903
v 14.1433001 0 -18.3591003
v 14.1433001 36.4749985 -18.3591003
v -22.3316002 36.4749985 -18.3591003
v 14.1433001 0 -8.97044277
v -5.98723745 0 -18.3591003
v -22.3316002 6.78586674 -18.3591003
v 14.1433001 19.4396744 12.8668938
v 14.1433001 36.4749985 14.1070032
v -22.3316002 36.4749985 -9.81595516
v -22.3316002 12.860714 -11.5349884
v -22.3316002 36.4749985 18.1159
v 14.1433001 36.4749985 18.1159
v -22.3316002 20.854847 18.1159
v 14.1433001 20.8548489 18.1159
v -22.3316002 36.4749985 -9.81595516
v 14.1433001 36.4749985 14.1070042
v 14.1433001 19.4396706 12.8668919
v -22.3316002 12.8607121 -11.5349913
vt 0.323500007 0.998000026 0
vt 0.00200000009 0.998000026 0
vt 0.00200000009 0.853936315 0
vt 0.0847540572 0.676500022 0
vt 0.323500007 0.676500022 0
vt 0.339300007 0.33919999 0
vt 0.660700023 0.339300007 0
vt 0.660700023 0.523062825 0
vt 0.339300007 0.523019969 0
vt 0.516681075 0.676500022 0
vt 0.660700023 0.676500022 0
vt 0.660700023 0.736312389 0
vt 0.00200000009 0.339300007 0
vt 0.323500007 0.339300007 0
vt 0.323500007 0.523062825 0
vt 0.0621494576 0.452622354 0
vt 0.00200000009 0.399093747 0
vt 0 0 0
vt 0.66079998 0.323500007 0
vt 0.422054052 0.323500007 0
vt 0.614533901 0.15215376 0
vt 0.66079998 0.139680028 0
vt 0.0847540349 0.676500022 0
vt 0.00200000009 0.853936255 0
vt 0.00200000009 0.676500022 0
vt 0.339300007 0.676500022 0
vt 0.516681015 0.676500022 0
vt 0.660700023 0.998000026 0
vt 0.339300007 0.998000026 0
vt 0.00200000009 0.399093777 0
vt 0.0621494651 0.452622384 0
vt 0.0773014724 0.660700023 0
vt 0.00200000009 0.660700023 0
vt 0.614533901 0.15215373 0
vt 0.422054023 0.323500007 0
vt 0.339300007 0.323500007 0
vt 0.339300007 0.00200000009 0
vt 0.625464559 0.00200000009 0
vt 0.0773014724 0.00200000009 0
vt 0.288164556 0.323500007 0
vt 0.00200000009 0.323500007 0
vt 0.00200000009 0.00200000009 0
vt 0.323500007 0.00200000009 0
vt 0.323500007 0.323500007 0
vt 0.660700023 0.660700023 0
vt 0.339300007 0.660700023 0
vt 0.66079998 0.139680013 0
vt 0.66079998 0.00200000009 0
vt 0.0621494502 0.452622384 0
vt 0.323500007 0.660700023 0
vn 0 -1 -0
vn 0 -1 -0
vn 0 -1 0
vn 0 -1 0
vn 0 -1 -0
vn 0 0 1
vn 0 0 1
vn 0 0 1
vn 0 0 1
vn 0 0 -1
vn 0 0 -1
vn 0 0 -1
vn -1 0 -0
vn -1 0 -0
vn -1 0 0
vn -1 0 0
vn -1 0 0
vn -0 0.965524077 -0.26031366
vn -0 0.965524077 -0.260313809
vn 1.15425898e-07 0.965524018 -0.260313809
vn 2.72446599e-08 0.965524137 -0.26031366
vn 1 0 -0
vn 1 0 0
vn 1 0 0
vn 1 0 0
vn 0.296192497 0.713405907 -0.635076344
vn 0.296192497 0.713405907 -0.635076404
vn 0.296192467 0.713405907 -0.635076404
vn 0.296192497 0.713405907 -0.635076404
vn 0.296192497 0.713405848 -0.635076344
vn 0 -1 0
vn 0 -1 0
vn 0 -1 -0
vn 0 0 -1
vn 0 0 -1
vn 0 0 -1
vn 0 0 -1
vn 0 0 -1
vn -1 0 0
vn -1 0 0
vn -1 0 0
vn -1 0 -0
vn 1 0 0
vn 1 0 0
vn 1 0 -0
vn 1 0 -0
vn 1 0 0
vn 0 1 0
vn 0 1 0
vn 0 1 -0
vn 0 1 -0
vn -0.296192586 -0.713405848 0.635076404
vn -0.296192497 -0.713405907 0.635076463
vn -0.296192408 -0.713405967 0.635076284
vn -0.296192527 -0.713405967 0.635076404
vn -0.296192527 -0.713405967 0.635076404
vn -0.547423661 -0.0607592314 0.834647
vn -0.547423661 -0.0607592389 0.834647059
vn -0.54742372 -0.0607592613 0.834647059
vn -0.54742372 -0.0607592538 0.83464694
vn 0 1 -0
vn 0 1 -0
vn 0 1 0
vn 0 1 0
vn 0 0 1
vn 0 0 1
vn 0 0 1
vn 0 0 1
vn 1 0 0
vn 1 0 0
vn 1 0 0
vn 1 0 -0
vn 5.04892697e-08 -0.965524077 0.26031372
vn 5.04892768e-08 -0.965524077 0.2603136
vn 2.72446599e-08 -0.965524137 0.2603136
vn -1.92376426e-08 -0.965524137 0.260313749
vn -1 0 0
vn -1 0 0
vn -1 0 -0
vn -1 0 0
vn 0.547423661 0.060759332 -0.834647
vn 0.547423661 0.0607593767 -0.83464694
vn 0.54742372 0.0607593842 -0.834647059
vn 0.54742372 0.0607593358 -0.834647059
g piece0
usemtl /mat/crate_texture
f 1/1/1 2/2/2 7/3/3 6/4/4 3/5/5
f 1/6/6 3/7/7 5/8/8 4/9/9
f 7/10/10 2/11/11 9/12/12
f 2/13/13 1/14/14 4/15/15 10/16/16 9/17/17
f 4/18/18 5/18/19 8/18/20 10/18/21
f 3/19/22 6/20/23 8/21/24 5/22/25
f 6/18/26 7/18/27 9/18/28 10/18/29 8/18/30
g piece1
usemtl /mat/crate_texture
f 14/23/31 15/24/32 11/25/33
f 11/26/34 15/27/35 16/12/36 13/28/37 12/29/38
f 16/30/39 20/31/40 19/32/41 13/33/42
f 17/34/43 14/35/44 11/36/45 12/37/46 18/38/47
f 19/39/48 18/40/49 12/41/50 13/42/51
f 14/18/52 17/18/53 20/18/54 16/18/55 15/18/56
f 19/18/57 20/18/58 17/18/59 18/18/60
g piece2
usemtl /mat/crate_texture
f 21/43/61 22/44/62 26/40/63 25/39/64
f 23/9/65 24/8/66 22/45/67 21/46/68
f 24/47/69 27/21/70 26/38/71 22/48/72
f 24/18/73 23/18/74 28/18/75 27/18/76
f 28/49/77 23/15/78 21/50/79 25/32/80
f 25/18/81 26/18/82 27/18/83 28/18/84
